<?xml version="1.0" encoding="utf-8"?>
<!-- Generator: Adobe Illustrator 26.3.1, SVG Export Plug-In . SVG Version: 6.00 Build 0)  -->
<svg version="1.1" xmlns="http://www.w3.org/2000/svg" xmlns:xlink="http://www.w3.org/1999/xlink" x="0px" y="0px"
	 viewBox="0 0 856.48 314.14" style="enable-background:new 0 0 856.48 314.14;" xml:space="preserve">
<style type="text/css">
	.st0{fill:#0F1819;}
	.st1{fill:#FFAB16;}
	.st2{fill:#FF473E;}
	.st3{fill:#304F56;}
	.st4{fill:#F2C35C;}
	.st5{fill:#2AA4CE;}
	.st6{fill:#F2F2E9;}
	.st7{fill:#9B3D3D;}
	.st8{fill:#D9D9DD;}
	.st9{fill:none;stroke:#F2F2E9;stroke-width:8;stroke-linecap:round;stroke-miterlimit:10;}
	.st10{fill:#2D383A;}
	.st11{fill:none;stroke:#F2F2E9;stroke-width:20;stroke-linecap:round;stroke-miterlimit:10;}
	.st12{fill:#EE8539;}
	.st13{fill:#935D38;}
</style>
<g id="Calque_1">
</g>
<g id="toto1">
	<path class="st5" d="M-0.65,3.53l122.38,7.65c-0.35,11.9-0.32,26.59,0,38.8c-40.91-0.54-81.1-8.36-122.38-7.65
		C-0.33,30.13-0.31,15.73-0.65,3.53z M38.8,26.38h43.6c-3.37,44.01-12.33,132.85,19.58,132.85c2.47-0.07-49.3,0-31.12,0
		c-23.34,0-32.71-8.62-32.71-51.5C38.15,82.78,38.84,52.71,38.8,26.38z"/>
	<path class="st2" d="M260.48,95.38c0,10.27-1.5,19.5-4.5,27.7s-7.33,15.13-13,20.8c-5.67,5.67-12.6,9.97-20.8,12.9
		c-8.2,2.93-17.57,4.4-28.1,4.4c-10.67,0-20.07-1.47-28.2-4.4c-8.13-2.93-14.9-7.23-20.3-12.9c-5.4-5.67-9.54-12.6-12.4-20.8
		c-2.87-8.2-4.3-17.43-4.3-27.7c0-10.8,1.57-20.07,4.7-27.8c3.13-7.73,7.43-14.17,12.9-19.3c5.47-5.13,12.2-8.93,20.2-11.4
		c8-2.47,17.13-3.7,27.4-3.7c10,0,19.1,1.23,27.3,3.7c8.2,2.47,15.17,6.27,20.9,11.4c5.73,5.13,10.2,11.57,13.4,19.3
		C258.88,75.32,260.48,84.58,260.48,95.38z M219.48,96.18c0-5.6-0.53-10.23-1.6-13.9c-1.07-3.67-2.73-6.73-5-9.2
		c-2.27-2.47-5-4.2-8.2-5.2s-6.67-1.5-10.4-1.5c-4.13,0-7.77,0.5-10.9,1.5c-3.13,1-5.8,2.7-8,5.1c-2.2,2.4-3.9,5.5-5.1,9.3
		c-1.2,3.8-1.8,8.43-1.8,13.9c0,5.33,0.6,10,1.8,14c1.2,4,2.87,7.27,5,9.8c2.13,2.53,4.8,4.43,8,5.7c3.2,1.27,6.87,1.9,11,1.9
		c3.87,0,7.43-0.63,10.7-1.9c3.27-1.27,6-3.23,8.2-5.9c2.2-2.67,3.8-5.93,4.8-9.8C218.98,106.12,219.48,101.52,219.48,96.18z"/>
	<path class="st2" d="M271.48,36.18c3.87-0.13,8.23-0.17,13.1-0.1c4.87,0.07,9.97,0.13,15.3,0.2c5.33,0.07,10.9,0.1,16.7,0.1
		s11.57,0,17.3,0c5.73,0,11.27-0.03,16.6-0.1c5.33-0.07,10.2-0.17,14.6-0.3c-0.13,3.33-0.3,7.1-0.5,11.3c-0.2,4.2-0.3,8.3-0.3,12.3
		s0,7.67,0,11c-2.27-0.13-5.13-0.2-8.6-0.2c-3.47,0-7.23-0.03-11.3-0.1c-4.07-0.07-8.23-0.13-12.5-0.2
		c-4.27-0.07-8.73-0.17-13.4-0.3c-4.67-0.13-9.1-0.2-13.3-0.2c-4.2,0-8.4-0.03-12.6-0.1c-4.2-0.07-8.03-0.13-11.5-0.2
		c-3.47-0.07-6.53-0.1-9.2-0.1c0-2.27,0-4.83,0-7.7c0-2.87,0-5.87,0-9c0-3.13-0.03-6.07-0.1-8.8
		C271.71,40.95,271.61,38.45,271.48,36.18z M285.28,11.18c3.2,0,6.57,0.03,10.1,0.1c3.53,0.07,6.97,0.1,10.3,0.1
		c2.27,0,4.53,0,6.8,0c2.27,0,4.6-0.03,7-0.1c2.4-0.07,4.46-0.1,6.2-0.1c-0.13,6.93-0.27,14.1-0.4,21.5c-0.13,7.4-0.3,15.1-0.5,23.1
		s-0.33,16.5-0.4,25.5c-0.07,9-0.1,18.43-0.1,28.3c0,3.47,0.53,6.2,1.6,8.2c1.07,2,2.8,3.43,5.2,4.3c2.4,0.87,5.53,1.3,9.4,1.3
		c4.53,0,8.8-0.43,12.8-1.3c4-0.87,7.4-1.77,10.2-2.7c0.13,2.27,0.33,4.63,0.6,7.1c0.27,2.47,0.57,4.97,0.9,7.5
		c0.33,2.53,0.7,5.13,1.1,7.8c0.4,2.67,0.8,5.13,1.2,7.4c0.4,2.27,0.73,4.27,1,6c-3.87,1.2-7.47,2.13-10.8,2.8
		c-3.33,0.67-6.87,1.2-10.6,1.6c-3.73,0.4-7.93,0.6-12.6,0.6c-7.47,0-14.07-0.73-19.8-2.2c-5.73-1.47-10.54-3.47-14.4-6
		c-3.87-2.53-6.9-5.57-9.1-9.1c-2.2-3.53-3.8-7.6-4.8-12.2c-1-4.6-1.5-9.63-1.5-15.1c0-4.13,0.03-9.1,0.1-14.9
		c0.07-5.8,0.13-11.77,0.2-17.9c0.07-6.13,0.07-12.4,0-18.8c-0.07-6.4-0.07-12.83,0-19.3c0.07-6.47,0.13-12.5,0.2-18.1
		C285.24,20.98,285.28,15.85,285.28,11.18z"/>
	<path class="st2" d="M510.28,95.38c0,10.27-1.5,19.5-4.5,27.7s-7.33,15.13-13,20.8c-5.67,5.67-12.6,9.97-20.8,12.9
		c-8.2,2.93-17.57,4.4-28.1,4.4c-10.67,0-20.07-1.47-28.2-4.4c-8.13-2.93-14.9-7.23-20.3-12.9c-5.4-5.67-9.54-12.6-12.4-20.8
		c-2.87-8.2-4.3-17.43-4.3-27.7c0-10.8,1.57-20.07,4.7-27.8c3.13-7.73,7.43-14.17,12.9-19.3c5.47-5.13,12.2-8.93,20.2-11.4
		c8-2.47,17.13-3.7,27.4-3.7c10,0,19.1,1.23,27.3,3.7c8.2,2.47,15.17,6.27,20.9,11.4c5.73,5.13,10.2,11.57,13.4,19.3
		C508.68,75.32,510.28,84.58,510.28,95.38z M469.28,96.18c0-5.6-0.53-10.23-1.6-13.9c-1.07-3.67-2.73-6.73-5-9.2
		c-2.27-2.47-5-4.2-8.2-5.2s-6.67-1.5-10.4-1.5c-4.13,0-7.77,0.5-10.9,1.5c-3.13,1-5.8,2.7-8,5.1c-2.2,2.4-3.9,5.5-5.1,9.3
		c-1.2,3.8-1.8,8.43-1.8,13.9c0,5.33,0.6,10,1.8,14c1.2,4,2.87,7.27,5,9.8c2.13,2.53,4.8,4.43,8,5.7c3.2,1.27,6.87,1.9,11,1.9
		c3.87,0,7.43-0.63,10.7-1.9c3.27-1.27,6-3.23,8.2-5.9c2.2-2.67,3.8-5.93,4.8-9.8C468.78,106.12,469.28,101.52,469.28,96.18z"/>
	<path class="st5" d="M114.65,122.64c0,0-5.04-0.07-16.66-0.07c-19.18,0-19.18,0-19.18-16.91l-4.06,53.57h39.9L114.65,122.64z"/>
	<path class="st2" d="M473.13,252.11H36.49c-20.52,0-37.15-16.63-37.15-37.15v0c0-20.52,16.63-37.15,37.15-37.15h436.64
		c20.52,0,37.15,16.63,37.15,37.15v0C510.28,235.48,493.65,252.11,473.13,252.11z"/>
	<g>
		<g>
			<path class="st6" d="M144.41,198.14h7.01l13.68,25.39h-2.74l13.63-25.39h6.72v36.48h-6.05v-31.2h2.02l-12.48,23.14h-5.23
				l-12.48-23.14h2.02v31.2h-6.1V198.14z"/>
			<path class="st6" d="M204.26,198.14h6.77l14.64,36.48h-6.77l-12.34-33.41h1.82l-12.34,33.41h-6.38L204.26,198.14z M198.36,219.54
				h18.19l1.73,4.99h-21.7L198.36,219.54z"/>
			<path class="st6" d="M232.58,198.14h11.52c2.69,0,5.02,0.47,7.01,1.42c1.98,0.94,3.51,2.28,4.58,4.01
				c1.07,1.73,1.61,3.76,1.61,6.1c0,1.79-0.35,3.39-1.06,4.8c-0.7,1.41-1.66,2.61-2.88,3.6c-1.22,0.99-2.59,1.76-4.13,2.3
				c-1.54,0.54-3.15,0.82-4.85,0.82h-9.02v-4.94H243c2.66,0,4.65-0.55,5.98-1.66c1.33-1.1,1.99-2.74,1.99-4.92
				c0-2.18-0.65-3.82-1.94-4.92s-3.22-1.66-5.78-1.66h-7.78l3.26-4.46v36h-6.14V198.14z M243.52,218.1h6.53l10.85,16.51h-7.25
				L243.52,218.1z"/>
			<path class="st6" d="M268.24,198.14h6.34v36.48h-6.34V198.14z M272.85,215.9l17.42-17.76h8.06l-20.11,19.87v-4.94l21.84,21.55
				h-8.74L272.85,215.9z"/>
			<path class="st6" d="M306.21,198.14h23.57v5.09h-20.45l2.98-4.61v35.52l-2.98-4.61h21.17v5.09h-24.29V198.14z M309.09,213.45
				h18.77v5.09h-18.77V213.45z"/>
			<path class="st6" d="M348.64,203.42h-12v-5.28h30.38v5.28h-12v31.2h-6.38V203.42z"/>
		</g>
	</g>
	<path class="st5" d="M142.73,265.74c-1.47-0.18-3.29-0.66-5.08-1.37c0,0.06,0,0.12,0,0.18c0,19.62-15.96,35.59-35.59,35.59
		c-19.62,0-35.59-15.96-35.59-35.59c0-0.95,0.05-1.9,0.13-2.83c-4.85-0.68-9.79-2.94-13.32-6.05c-0.52,2.88-0.81,5.85-0.81,8.88
		c0,27.39,22.2,49.59,49.59,49.59c27.39,0,49.59-22.2,49.59-49.59c0,0,0,0,0-0.01C148.96,265.67,145.92,266.13,142.73,265.74z"/>
	<path class="st5" d="M435.55,265.74c-1.47-0.18-3.29-0.66-5.08-1.37c0,0.06,0,0.12,0,0.18c0,19.62-15.96,35.59-35.59,35.59
		c-19.62,0-35.59-15.96-35.59-35.59c0-0.95,0.05-1.9,0.13-2.83c-4.85-0.68-9.79-2.94-13.32-6.05c-0.52,2.88-0.81,5.85-0.81,8.88
		c0,27.39,22.2,49.59,49.59,49.59c27.39,0,49.59-22.2,49.59-49.59c0,0,0,0,0-0.01C441.79,265.67,438.75,266.13,435.55,265.74z"/>
	<g>
		<g>
			<g>
				<path class="st6" d="M597.96,75c-2.32,0.94-4.72,1.64-7.2,2.11c-2.48,0.47-5.02,0.7-7.62,0.7c-4.16,0-7.83-0.84-11-2.52
					c-3.17-1.68-5.64-4.03-7.41-7.05c-1.77-3.02-2.65-6.52-2.65-10.5c0-3.05,0.53-5.82,1.59-8.32c1.06-2.5,2.54-4.66,4.45-6.5
					c1.91-1.84,4.18-3.26,6.81-4.26c2.63-1,5.53-1.51,8.68-1.51c2.39,0,4.75,0.28,7.07,0.83c2.32,0.55,4.45,1.35,6.4,2.39
					l-1.04,4.84c-1.84-0.97-3.87-1.71-6.11-2.21c-2.24-0.5-4.48-0.75-6.73-0.75c-3.02,0-5.67,0.64-7.96,1.92
					c-2.29,1.28-4.06,3.08-5.33,5.38c-1.27,2.31-1.9,4.97-1.9,7.98c0,3.12,0.63,5.82,1.9,8.09c1.27,2.27,3.04,4.03,5.33,5.28
					c2.29,1.25,5.01,1.87,8.16,1.87c1.66,0,3.23-0.11,4.71-0.34c1.47-0.23,2.94-0.56,4.39-1.01V58.1l2.76,2.7h-11.6v-4.68h14.3V75z"
					/>
				<path class="st6" d="M606.38,51.08h5.04l0.1,7.85l-0.62-0.57c0.52-2.39,1.53-4.26,3.02-5.62c1.49-1.35,3.24-2.03,5.25-2.03
					c0.55,0,1.13,0.04,1.72,0.13c0.59,0.09,1.04,0.22,1.35,0.39l-0.52,5.04c-0.45-0.17-0.96-0.32-1.53-0.44
					c-0.57-0.12-1.12-0.18-1.64-0.18c-2.15,0-3.83,0.79-5.04,2.37c-1.21,1.58-1.82,3.8-1.82,6.68v12.53h-5.3V51.08z"/>
				<path class="st6" d="M652.48,71.2c-1.23,2.12-2.9,3.79-4.99,5.02c-2.1,1.23-4.43,1.85-6.99,1.85c-2.67,0-5.04-0.61-7.1-1.82
					c-2.06-1.21-3.7-2.87-4.91-4.97c-1.21-2.1-1.82-4.46-1.82-7.1c0-2.63,0.61-5,1.82-7.1c1.21-2.1,2.87-3.76,4.97-4.99
					c2.1-1.23,4.45-1.85,7.05-1.85c2.63,0,5,0.61,7.1,1.82c2.1,1.21,3.74,2.87,4.94,4.97c1.2,2.1,1.79,4.48,1.79,7.15
					C654.33,66.75,653.71,69.09,652.48,71.2z M633.14,68.91c0.71,1.39,1.71,2.46,2.99,3.22c1.28,0.76,2.74,1.14,4.37,1.14
					c1.66,0,3.12-0.38,4.37-1.14c1.25-0.76,2.24-1.84,2.96-3.22c0.73-1.39,1.09-2.96,1.09-4.73c0-1.8-0.36-3.4-1.09-4.78
					c-0.73-1.39-1.72-2.46-2.96-3.22c-1.25-0.76-2.7-1.14-4.37-1.14c-1.63,0-3.09,0.38-4.37,1.14c-1.28,0.76-2.28,1.84-2.99,3.22
					c-0.71,1.39-1.07,2.98-1.07,4.78C632.07,65.95,632.43,67.53,633.14,68.91z"/>
				<path class="st6" d="M676.22,75.91c-1.98,1.44-4.61,2.16-7.9,2.16c-1.73,0-3.44-0.23-5.12-0.68c-1.68-0.45-3.02-1.06-4.03-1.82
					l0.78-4.37c1.14,0.8,2.46,1.44,3.95,1.92c1.49,0.49,2.91,0.73,4.26,0.73c1.8,0,3.2-0.31,4.19-0.94c0.99-0.62,1.48-1.46,1.48-2.5
					c0-0.73-0.16-1.32-0.47-1.77c-0.31-0.45-0.89-0.88-1.74-1.27c-0.85-0.4-2.07-0.82-3.67-1.27c-2.98-0.87-5.11-1.92-6.4-3.17
					c-1.28-1.25-1.92-2.88-1.92-4.89c0-2.39,0.9-4.29,2.7-5.69c1.8-1.4,4.26-2.11,7.38-2.11c1.49,0,3,0.2,4.52,0.6
					c1.52,0.4,2.76,0.89,3.69,1.48l-0.78,4.26c-1.11-0.69-2.31-1.22-3.59-1.59c-1.28-0.36-2.55-0.55-3.8-0.55
					c-1.59,0-2.83,0.28-3.69,0.83c-0.87,0.55-1.3,1.33-1.3,2.34c0,1.01,0.38,1.79,1.14,2.37c0.76,0.57,2.17,1.15,4.21,1.74
					c3.33,0.97,5.67,2.09,7.02,3.35c1.35,1.27,2.03,2.96,2.03,5.07C679.18,72.55,678.19,74.47,676.22,75.91z"/>
				<path class="st6" d="M700.71,75.91c-1.98,1.44-4.61,2.16-7.9,2.16c-1.73,0-3.44-0.23-5.12-0.68c-1.68-0.45-3.02-1.06-4.03-1.82
					l0.78-4.37c1.14,0.8,2.46,1.44,3.95,1.92c1.49,0.49,2.91,0.73,4.26,0.73c1.8,0,3.2-0.31,4.19-0.94c0.99-0.62,1.48-1.46,1.48-2.5
					c0-0.73-0.16-1.32-0.47-1.77c-0.31-0.45-0.89-0.88-1.74-1.27c-0.85-0.4-2.07-0.82-3.67-1.27c-2.98-0.87-5.11-1.92-6.4-3.17
					c-1.28-1.25-1.92-2.88-1.92-4.89c0-2.39,0.9-4.29,2.7-5.69c1.8-1.4,4.26-2.11,7.38-2.11c1.49,0,3,0.2,4.52,0.6
					c1.52,0.4,2.76,0.89,3.69,1.48l-0.78,4.26c-1.11-0.69-2.31-1.22-3.59-1.59c-1.28-0.36-2.55-0.55-3.8-0.55
					c-1.59,0-2.83,0.28-3.69,0.83c-0.87,0.55-1.3,1.33-1.3,2.34c0,1.01,0.38,1.79,1.14,2.37c0.76,0.57,2.17,1.15,4.21,1.74
					c3.33,0.97,5.67,2.09,7.02,3.35c1.35,1.27,2.03,2.96,2.03,5.07C703.67,72.55,702.69,74.47,700.71,75.91z"/>
				<path class="st6" d="M710.54,43.64c-0.66-0.66-0.99-1.49-0.99-2.5c0-1.01,0.33-1.84,0.99-2.5c0.66-0.66,1.47-0.99,2.44-0.99
					c1,0,1.83,0.33,2.47,0.99c0.64,0.66,0.96,1.49,0.96,2.5c0,1.01-0.32,1.84-0.96,2.5c-0.64,0.66-1.47,0.99-2.47,0.99
					C712.01,44.63,711.2,44.3,710.54,43.64z M710.38,51.08h5.3v26.16h-5.3V51.08z"/>
				<path class="st6" d="M739.35,75.91c-1.98,1.44-4.61,2.16-7.9,2.16c-1.73,0-3.44-0.23-5.12-0.68c-1.68-0.45-3.02-1.06-4.03-1.82
					l0.78-4.37c1.14,0.8,2.46,1.44,3.95,1.92c1.49,0.49,2.91,0.73,4.26,0.73c1.8,0,3.2-0.31,4.19-0.94c0.99-0.62,1.48-1.46,1.48-2.5
					c0-0.73-0.16-1.32-0.47-1.77c-0.31-0.45-0.89-0.88-1.74-1.27c-0.85-0.4-2.07-0.82-3.67-1.27c-2.98-0.87-5.11-1.92-6.4-3.17
					c-1.28-1.25-1.92-2.88-1.92-4.89c0-2.39,0.9-4.29,2.7-5.69c1.8-1.4,4.26-2.11,7.38-2.11c1.49,0,3,0.2,4.52,0.6
					c1.52,0.4,2.76,0.89,3.69,1.48l-0.78,4.26c-1.11-0.69-2.31-1.22-3.59-1.59c-1.28-0.36-2.55-0.55-3.8-0.55
					c-1.59,0-2.83,0.28-3.69,0.83c-0.87,0.55-1.3,1.33-1.3,2.34c0,1.01,0.38,1.79,1.14,2.37c0.76,0.57,2.17,1.15,4.21,1.74
					c3.33,0.97,5.67,2.09,7.02,3.35c1.35,1.27,2.03,2.96,2.03,5.07C742.31,72.55,741.32,74.47,739.35,75.91z"/>
				<path class="st6" d="M745.79,51.08h17.99v4.47h-17.99V51.08z M751.51,43.69h5.36v33.54h-5.36V43.69z"/>
				<path class="st6" d="M769.82,56.98c1.11-2.1,2.65-3.74,4.63-4.94c1.98-1.2,4.25-1.79,6.81-1.79c2.43,0,4.53,0.54,6.32,1.61
					c1.79,1.07,3.18,2.57,4.19,4.5c1,1.92,1.51,4.19,1.51,6.79c0,0.45-0.02,0.88-0.05,1.3c-0.04,0.42-0.07,0.83-0.1,1.25h-21.58
					l0.05-3.8h18.93l-2.34,1.98c0.03-0.55,0.04-1.09,0.03-1.61c-0.02-0.52-0.06-0.99-0.13-1.4c-0.17-1.39-0.56-2.54-1.17-3.46
					c-0.61-0.92-1.4-1.63-2.39-2.13c-0.99-0.5-2.16-0.75-3.51-0.75c-1.56,0-2.92,0.37-4.08,1.12c-1.16,0.75-2.05,1.84-2.68,3.28
					c-0.62,1.44-0.94,3.15-0.94,5.12c0.03,2.08,0.44,3.83,1.22,5.25c0.78,1.42,1.91,2.49,3.38,3.2c1.47,0.71,3.27,1.07,5.38,1.07
					c1.49,0,3-0.17,4.52-0.52c1.53-0.35,2.96-0.85,4.32-1.51l0.57,4.26c-1.21,0.73-2.7,1.29-4.45,1.69c-1.75,0.4-3.54,0.6-5.38,0.6
					c-3.02,0-5.63-0.56-7.85-1.66c-2.22-1.11-3.92-2.7-5.1-4.78c-1.18-2.08-1.77-4.54-1.77-7.38
					C768.15,61.49,768.71,59.08,769.82,56.98z"/>
				<path class="st6" d="M589.28,176.23h-5.15l-0.21-6.86l0.78,0.88c-0.87,2.18-2.2,3.87-4,5.04c-1.8,1.18-3.9,1.77-6.29,1.77
					s-4.52-0.59-6.4-1.77s-3.34-2.83-4.39-4.94c-1.06-2.11-1.59-4.51-1.59-7.18c0-2.6,0.57-4.96,1.72-7.07
					c1.14-2.11,2.69-3.79,4.63-5.02c1.94-1.23,4.11-1.85,6.5-1.85c1.46,0,2.83,0.27,4.11,0.81c1.28,0.54,2.42,1.32,3.41,2.34
					c0.99,1.02,1.76,2.24,2.31,3.67l-0.78,0.88l0.21-6.86h5.15V176.23z M575.86,172.28c1.66,0,3.12-0.38,4.37-1.14
					c1.25-0.76,2.24-1.84,2.96-3.22c0.73-1.39,1.09-2.96,1.09-4.73c0-1.8-0.36-3.4-1.09-4.78c-0.73-1.39-1.72-2.46-2.96-3.22
					c-1.25-0.76-2.7-1.14-4.37-1.14c-1.63,0-3.09,0.38-4.37,1.14c-1.28,0.76-2.28,1.84-2.99,3.22c-0.71,1.39-1.07,2.98-1.07,4.78
					c0,1.77,0.36,3.35,1.07,4.73c0.71,1.39,1.71,2.46,2.99,3.22C572.77,171.9,574.23,172.28,575.86,172.28z"/>
				<path class="st6" d="M598.06,134.11h5.3v42.12h-5.3V134.11z"/>
				<path class="st6" d="M612.36,142.64c-0.66-0.66-0.99-1.49-0.99-2.5c0-1.01,0.33-1.84,0.99-2.5c0.66-0.66,1.47-0.99,2.44-0.99
					c1,0,1.83,0.33,2.47,0.99c0.64,0.66,0.96,1.49,0.96,2.5c0,1.01-0.32,1.84-0.96,2.5c-0.64,0.66-1.47,0.99-2.47,0.99
					C613.83,143.63,613.02,143.3,612.36,142.64z M612.21,150.08h5.3v26.16h-5.3V150.08z"/>
				<path class="st6" d="M626.35,150.08h5.04l0.16,6.6l-0.62-0.78c0.48-2.08,1.54-3.71,3.17-4.89c1.63-1.18,3.55-1.77,5.77-1.77
					c2.29,0,4.19,0.61,5.72,1.82c1.52,1.21,2.58,3.03,3.17,5.46l-0.99-0.21c0.42-2.11,1.49-3.82,3.22-5.12
					c1.73-1.3,3.74-1.95,6.03-1.95c3.08,0,5.46,0.96,7.12,2.89s2.5,4.69,2.5,8.29c0,0.38,0,0.8,0,1.25c0,0.45,0,0.94,0,1.46v13.1
					h-5.36v-12.38c0-0.45,0-0.89,0-1.33c0-0.43,0-0.82,0-1.17c0-2.5-0.47-4.35-1.4-5.56c-0.94-1.21-2.38-1.82-4.32-1.82
					c-1.35,0-2.5,0.32-3.46,0.96c-0.95,0.64-1.69,1.54-2.21,2.7c-0.52,1.16-0.78,2.59-0.78,4.29v14.3h-5.3V163.8
					c0-0.42,0-0.83,0-1.25s0-0.83,0-1.25c0-2.5-0.46-4.34-1.38-5.54c-0.92-1.2-2.35-1.79-4.29-1.79c-1.35,0-2.51,0.31-3.48,0.94
					c-0.97,0.62-1.72,1.52-2.24,2.68c-0.52,1.16-0.78,2.59-0.78,4.29v14.35h-5.3V150.08z"/>
				<path class="st6" d="M675.23,155.98c1.11-2.1,2.65-3.74,4.63-4.94c1.98-1.2,4.25-1.79,6.81-1.79c2.43,0,4.53,0.54,6.32,1.61
					c1.79,1.07,3.18,2.57,4.19,4.5c1,1.92,1.51,4.19,1.51,6.79c0,0.45-0.02,0.88-0.05,1.3c-0.04,0.42-0.07,0.83-0.1,1.25h-21.58
					l0.05-3.8h18.93l-2.34,1.98c0.03-0.55,0.04-1.09,0.03-1.61c-0.02-0.52-0.06-0.99-0.13-1.4c-0.17-1.39-0.56-2.54-1.17-3.46
					c-0.61-0.92-1.4-1.63-2.39-2.13c-0.99-0.5-2.16-0.75-3.51-0.75c-1.56,0-2.92,0.37-4.08,1.12c-1.16,0.75-2.05,1.84-2.68,3.28
					c-0.62,1.44-0.94,3.15-0.94,5.12c0.03,2.08,0.44,3.83,1.22,5.25c0.78,1.42,1.91,2.49,3.38,3.2c1.47,0.71,3.27,1.07,5.38,1.07
					c1.49,0,3-0.17,4.52-0.52c1.53-0.35,2.96-0.85,4.32-1.51l0.57,4.26c-1.21,0.73-2.7,1.29-4.45,1.69c-1.75,0.4-3.54,0.6-5.38,0.6
					c-3.02,0-5.63-0.56-7.85-1.66c-2.22-1.11-3.92-2.7-5.1-4.78c-1.18-2.08-1.77-4.54-1.77-7.38
					C673.57,160.49,674.12,158.08,675.23,155.98z"/>
				<path class="st6" d="M706.27,150.08h5.1l0.1,6.66l-0.62-0.78c0.55-2.08,1.65-3.72,3.28-4.91c1.63-1.2,3.55-1.79,5.77-1.79
					c3.08,0,5.45,0.96,7.1,2.89c1.65,1.92,2.47,4.69,2.47,8.29c0,0.38,0,0.81,0,1.27c0,0.47,0,0.96,0,1.48v13.05h-5.3v-12.38
					c0-0.45,0-0.89,0-1.33c0-0.43,0-0.82,0-1.17c0-2.5-0.48-4.35-1.43-5.56c-0.95-1.21-2.4-1.82-4.34-1.82
					c-1.39,0-2.6,0.32-3.64,0.96c-1.04,0.64-1.83,1.54-2.37,2.7c-0.54,1.16-0.81,2.59-0.81,4.29v14.3h-5.3V150.08z"/>
				<path class="st6" d="M734.92,150.08h17.99v4.47h-17.99V150.08z M740.64,142.69H746v33.54h-5.36V142.69z"/>
				<path class="st6" d="M784.53,176.23h-5.15l-0.21-6.86l0.78,0.88c-0.87,2.18-2.2,3.87-4,5.04c-1.8,1.18-3.9,1.77-6.29,1.77
					s-4.52-0.59-6.4-1.77s-3.34-2.83-4.39-4.94c-1.06-2.11-1.59-4.51-1.59-7.18c0-2.6,0.57-4.96,1.72-7.07
					c1.14-2.11,2.69-3.79,4.63-5.02c1.94-1.23,4.11-1.85,6.5-1.85c1.46,0,2.83,0.27,4.11,0.81c1.28,0.54,2.42,1.32,3.41,2.34
					c0.99,1.02,1.76,2.24,2.31,3.67l-0.78,0.88l0.21-6.86h5.15V176.23z M771.12,172.28c1.66,0,3.12-0.38,4.37-1.14
					c1.25-0.76,2.24-1.84,2.96-3.22c0.73-1.39,1.09-2.96,1.09-4.73c0-1.8-0.36-3.4-1.09-4.78c-0.73-1.39-1.72-2.46-2.96-3.22
					c-1.25-0.76-2.7-1.14-4.37-1.14c-1.63,0-3.09,0.38-4.37,1.14c-1.28,0.76-2.28,1.84-2.99,3.22c-0.71,1.39-1.07,2.98-1.07,4.78
					c0,1.77,0.36,3.35,1.07,4.73c0.71,1.39,1.71,2.46,2.99,3.22C768.03,171.9,769.49,172.28,771.12,172.28z"/>
				<path class="st6" d="M793.47,142.64c-0.66-0.66-0.99-1.49-0.99-2.5c0-1.01,0.33-1.84,0.99-2.5c0.66-0.66,1.47-0.99,2.44-0.99
					c1,0,1.83,0.33,2.47,0.99c0.64,0.66,0.96,1.49,0.96,2.5c0,1.01-0.32,1.84-0.96,2.5c-0.64,0.66-1.47,0.99-2.47,0.99
					C794.95,143.63,794.13,143.3,793.47,142.64z M793.32,150.08h5.3v26.16h-5.3V150.08z"/>
				<path class="st6" d="M807.46,150.08h5.04l0.1,7.85l-0.62-0.57c0.52-2.39,1.53-4.26,3.02-5.62c1.49-1.35,3.24-2.03,5.25-2.03
					c0.55,0,1.13,0.04,1.72,0.13c0.59,0.09,1.04,0.22,1.35,0.39l-0.52,5.04c-0.45-0.17-0.96-0.32-1.53-0.44
					c-0.57-0.12-1.12-0.18-1.64-0.18c-2.15,0-3.83,0.79-5.04,2.37c-1.21,1.58-1.82,3.8-1.82,6.68v12.53h-5.3V150.08z"/>
				<path class="st6" d="M829.41,155.98c1.11-2.1,2.65-3.74,4.63-4.94c1.98-1.2,4.25-1.79,6.81-1.79c2.43,0,4.53,0.54,6.32,1.61
					c1.79,1.07,3.18,2.57,4.19,4.5c1,1.92,1.51,4.19,1.51,6.79c0,0.45-0.02,0.88-0.05,1.3c-0.04,0.42-0.07,0.83-0.1,1.25h-21.58
					l0.05-3.8h18.93l-2.34,1.98c0.03-0.55,0.04-1.09,0.03-1.61c-0.02-0.52-0.06-0.99-0.13-1.4c-0.17-1.39-0.56-2.54-1.17-3.46
					c-0.61-0.92-1.4-1.63-2.39-2.13c-0.99-0.5-2.16-0.75-3.51-0.75c-1.56,0-2.92,0.37-4.08,1.12c-1.16,0.75-2.05,1.84-2.68,3.28
					c-0.62,1.44-0.94,3.15-0.94,5.12c0.03,2.08,0.44,3.83,1.22,5.25c0.78,1.42,1.91,2.49,3.38,3.2c1.47,0.71,3.27,1.07,5.38,1.07
					c1.49,0,3-0.17,4.52-0.52c1.53-0.35,2.96-0.85,4.32-1.51l0.57,4.26c-1.21,0.73-2.7,1.29-4.45,1.69c-1.75,0.4-3.54,0.6-5.38,0.6
					c-3.02,0-5.63-0.56-7.85-1.66c-2.22-1.11-3.92-2.7-5.1-4.78c-1.18-2.08-1.77-4.54-1.77-7.38
					C827.74,160.49,828.3,158.08,829.41,155.98z"/>
				<path class="st6" d="M563.69,254.98c1.11-2.1,2.65-3.74,4.63-4.94c1.98-1.2,4.25-1.79,6.81-1.79c2.43,0,4.53,0.54,6.32,1.61
					c1.79,1.07,3.18,2.57,4.19,4.5c1,1.92,1.51,4.19,1.51,6.79c0,0.45-0.02,0.88-0.05,1.3c-0.04,0.42-0.07,0.83-0.1,1.25h-21.58
					l0.05-3.8h18.93l-2.34,1.98c0.03-0.55,0.04-1.09,0.03-1.61c-0.02-0.52-0.06-0.99-0.13-1.4c-0.17-1.39-0.56-2.54-1.17-3.46
					c-0.61-0.92-1.4-1.63-2.39-2.13c-0.99-0.5-2.16-0.75-3.51-0.75c-1.56,0-2.92,0.37-4.08,1.12c-1.16,0.75-2.05,1.84-2.68,3.28
					c-0.62,1.44-0.94,3.15-0.94,5.12c0.03,2.08,0.44,3.83,1.22,5.25c0.78,1.42,1.91,2.49,3.38,3.2c1.47,0.71,3.27,1.07,5.38,1.07
					c1.49,0,3-0.17,4.52-0.52c1.53-0.35,2.96-0.85,4.32-1.51l0.57,4.26c-1.21,0.73-2.7,1.29-4.45,1.69c-1.75,0.4-3.54,0.6-5.38,0.6
					c-3.02,0-5.63-0.56-7.85-1.66c-2.22-1.11-3.92-2.7-5.1-4.78c-1.18-2.08-1.77-4.54-1.77-7.38
					C562.03,259.49,562.58,257.08,563.69,254.98z"/>
				<path class="st6" d="M594.73,249.08h5.1l0.1,6.66l-0.62-0.78c0.55-2.08,1.65-3.72,3.28-4.91c1.63-1.2,3.55-1.79,5.77-1.79
					c3.08,0,5.45,0.96,7.1,2.89c1.65,1.92,2.47,4.69,2.47,8.29c0,0.38,0,0.81,0,1.27c0,0.47,0,0.96,0,1.48v13.05h-5.3v-12.38
					c0-0.45,0-0.89,0-1.33c0-0.43,0-0.82,0-1.17c0-2.5-0.48-4.35-1.43-5.56c-0.95-1.21-2.4-1.82-4.34-1.82
					c-1.39,0-2.6,0.32-3.64,0.96c-1.04,0.64-1.83,1.54-2.37,2.7c-0.54,1.16-0.81,2.59-0.81,4.29v14.3h-5.3V249.08z"/>
				<path class="st6" d="M638.21,233.11h5.3v42.12h-5.3V233.11z"/>
				<path class="st6" d="M652.51,241.64c-0.66-0.66-0.99-1.49-0.99-2.5c0-1.01,0.33-1.84,0.99-2.5c0.66-0.66,1.47-0.99,2.44-0.99
					c1,0,1.83,0.33,2.47,0.99c0.64,0.66,0.96,1.49,0.96,2.5c0,1.01-0.32,1.84-0.96,2.5c-0.64,0.66-1.47,0.99-2.47,0.99
					C653.98,242.63,653.16,242.3,652.51,241.64z M652.35,249.08h5.3v26.16h-5.3V249.08z"/>
				<path class="st6" d="M692.03,273.62c0,4.89-1.21,8.58-3.64,11.08c-2.43,2.5-6.02,3.74-10.76,3.74c-1.25,0-2.51-0.1-3.8-0.31
					c-1.28-0.21-2.46-0.49-3.54-0.83c-1.07-0.35-1.92-0.73-2.55-1.14l0.62-4.68c1.21,0.76,2.62,1.34,4.21,1.74
					c1.59,0.4,3.19,0.6,4.78,0.6c3.19,0,5.56-0.81,7.1-2.42c1.54-1.61,2.31-4.06,2.31-7.36v-5.72l0.68,0.83
					c-0.87,2.18-2.2,3.87-4,5.04c-1.8,1.18-3.9,1.77-6.29,1.77s-4.52-0.59-6.4-1.77s-3.34-2.82-4.39-4.91
					c-1.06-2.1-1.59-4.48-1.59-7.15c0-2.6,0.57-4.95,1.72-7.05c1.14-2.1,2.69-3.76,4.63-4.99c1.94-1.23,4.11-1.85,6.5-1.85
					c1.46,0,2.83,0.27,4.11,0.81c1.28,0.54,2.42,1.32,3.41,2.34c0.99,1.02,1.78,2.24,2.37,3.67l-0.83,0.88l0.21-6.86h5.15V273.62z
					 M678.61,271.28c1.66,0,3.12-0.39,4.37-1.17c1.25-0.78,2.24-1.86,2.96-3.25c0.73-1.39,1.09-2.96,1.09-4.73
					c0-1.8-0.36-3.4-1.09-4.78c-0.73-1.39-1.72-2.46-2.96-3.22c-1.25-0.76-2.7-1.14-4.37-1.14c-1.63,0-3.09,0.38-4.37,1.14
					c-1.28,0.76-2.28,1.84-2.99,3.22c-0.71,1.39-1.07,2.98-1.07,4.78c0,1.77,0.36,3.35,1.07,4.73c0.71,1.39,1.71,2.47,2.99,3.25
					C675.52,270.89,676.98,271.28,678.61,271.28z"/>
				<path class="st6" d="M700.81,249.08h5.1l0.1,6.66l-0.62-0.78c0.55-2.08,1.65-3.72,3.28-4.91c1.63-1.2,3.55-1.79,5.77-1.79
					c3.08,0,5.45,0.96,7.1,2.89c1.65,1.92,2.47,4.69,2.47,8.29c0,0.38,0,0.81,0,1.27c0,0.47,0,0.96,0,1.48v13.05h-5.3v-12.38
					c0-0.45,0-0.89,0-1.33c0-0.43,0-0.82,0-1.17c0-2.5-0.48-4.35-1.43-5.56c-0.95-1.21-2.4-1.82-4.34-1.82
					c-1.39,0-2.6,0.32-3.64,0.96c-1.04,0.64-1.83,1.54-2.37,2.7c-0.54,1.16-0.81,2.59-0.81,4.29v14.3h-5.3V249.08z"/>
				<path class="st6" d="M732.64,254.98c1.11-2.1,2.65-3.74,4.63-4.94c1.98-1.2,4.25-1.79,6.81-1.79c2.43,0,4.53,0.54,6.32,1.61
					c1.79,1.07,3.18,2.57,4.19,4.5c1,1.92,1.51,4.19,1.51,6.79c0,0.45-0.02,0.88-0.05,1.3c-0.04,0.42-0.07,0.83-0.1,1.25h-21.58
					l0.05-3.8h18.93l-2.34,1.98c0.03-0.55,0.04-1.09,0.03-1.61c-0.02-0.52-0.06-0.99-0.13-1.4c-0.17-1.39-0.56-2.54-1.17-3.46
					c-0.61-0.92-1.4-1.63-2.39-2.13c-0.99-0.5-2.16-0.75-3.51-0.75c-1.56,0-2.92,0.37-4.08,1.12c-1.16,0.75-2.05,1.84-2.68,3.28
					c-0.62,1.44-0.94,3.15-0.94,5.12c0.03,2.08,0.44,3.83,1.22,5.25c0.78,1.42,1.91,2.49,3.38,3.2c1.47,0.71,3.27,1.07,5.38,1.07
					c1.49,0,3-0.17,4.52-0.52c1.53-0.35,2.96-0.85,4.32-1.51l0.57,4.26c-1.21,0.73-2.7,1.29-4.45,1.69c-1.75,0.4-3.54,0.6-5.38,0.6
					c-3.02,0-5.63-0.56-7.85-1.66c-2.22-1.11-3.92-2.7-5.1-4.78c-1.18-2.08-1.77-4.54-1.77-7.38
					C730.97,259.49,731.53,257.08,732.64,254.98z"/>
			</g>
		</g>
	</g>
</g>
</svg>
