<?xml version="1.0" encoding="utf-8"?>
<!-- Generator: Adobe Illustrator 26.3.1, SVG Export Plug-In . SVG Version: 6.00 Build 0)  -->
<svg version="1.1" xmlns="http://www.w3.org/2000/svg" xmlns:xlink="http://www.w3.org/1999/xlink" x="0px" y="0px"
	 viewBox="0 0 610.64 100.16" style="enable-background:new 0 0 610.64 100.16;" xml:space="preserve">
<style type="text/css">
	.st0{fill:#0F1819;}
	.st1{fill:#FFAB16;}
	.st2{fill:#FF473E;}
	.st3{fill:#304F56;}
	.st4{fill:#F2C35C;}
	.st5{fill:#2AA4CE;}
	.st6{fill:#F2F2E9;}
	.st7{fill:#9B3D3D;}
	.st8{fill:#EE8539;}
	.st9{fill:#935D38;}
	.st10{opacity:0.28;fill:#F2F2E9;}
	.st11{fill:none;stroke:#F2F2E9;stroke-width:8;stroke-linecap:round;stroke-miterlimit:10;}
	.st12{fill:#2D383A;}
	.st13{fill:none;stroke:#F2F2E9;stroke-width:20;stroke-linecap:round;stroke-miterlimit:10;}
	.st14{fill:#D9D9DD;}
</style>
<g id="Calque_1">
</g>
<g id="toto2">
	<path class="st6" d="M9.3,0l57.97,3.62c-0.17,5.64-0.15,12.6,0,18.38C47.9,21.75,28.86,18.04,9.3,18.38C9.46,12.6,9.47,5.78,9.3,0z
		 M27.99,10.82h20.65c-1.6,20.85-5.84,62.93,9.27,62.93c1.17-0.03-23.35,0-14.74,0c-11.06,0-15.49-4.08-15.49-24.4
		C27.69,37.54,28.01,23.3,27.99,10.82z"/>
	<path class="st6" d="M63.93,56.42c0,0-2.39-0.04-7.89-0.04c-9.09,0-9.09,0-9.09-8.01l-1.92,25.38h18.9V56.42z"/>
	<path class="st2" d="M51.27,83.38c-0.05-0.02-0.11-0.04-0.16-0.06c-4.7,4.58-11.23,7.26-18.28,6.85
		c-13.35-0.76-23.6-12.24-22.84-25.6c0.37-6.49,3.28-12.23,7.69-16.34c-1.48-3.84-1.61-8.38-0.27-12.06
		C7.61,41.7,0.74,51.94,0.06,64.01c-1.07,18.86,13.34,35.02,32.2,36.1c11.95,0.68,22.8-4.87,29.43-13.82
		C57.91,86.74,54.31,85.55,51.27,83.38z"/>
	<g>
		<g>
			<g>
				<path class="st6" d="M125.01,48.25c0,4.35-0.65,8.26-1.96,11.74c-1.3,3.48-3.12,6.45-5.44,8.92c-2.32,2.47-5.18,4.35-8.57,5.66
					c-3.39,1.3-7.21,1.96-11.44,1.96c-4.29,0-8.09-0.65-11.4-1.96c-3.31-1.31-6.16-3.19-8.57-5.66c-2.41-2.46-4.19-5.44-5.35-8.92
					c-1.16-3.48-1.74-7.39-1.74-11.74c0-4.35,0.64-8.18,1.91-11.48c1.28-3.31,3.1-6.09,5.48-8.35c2.38-2.26,5.22-3.96,8.53-5.09
					c3.31-1.13,7.02-1.7,11.14-1.7c4,0,7.7,0.57,11.09,1.7c3.39,1.13,6.29,2.83,8.7,5.09c2.41,2.26,4.28,5.05,5.61,8.35
					C124.34,40.07,125.01,43.9,125.01,48.25z M110.74,48.68c0-2.61-0.3-4.83-0.91-6.66c-0.61-1.83-1.48-3.35-2.61-4.57
					c-1.13-1.22-2.52-2.07-4.18-2.57c-1.65-0.49-3.47-0.74-5.44-0.74c-1.97,0-3.76,0.25-5.35,0.74c-1.6,0.49-2.99,1.33-4.18,2.52
					c-1.19,1.19-2.09,2.71-2.7,4.57c-0.61,1.86-0.91,4.09-0.91,6.7c0,2.55,0.3,4.84,0.91,6.87c0.61,2.03,1.49,3.64,2.65,4.83
					c1.16,1.19,2.55,2.1,4.18,2.74c1.62,0.64,3.42,0.96,5.39,0.96c2.03,0,3.87-0.32,5.52-0.96c1.65-0.64,3.04-1.59,4.18-2.87
					c1.13-1.28,1.99-2.88,2.57-4.83C110.45,53.48,110.74,51.24,110.74,48.68z"/>
				<path class="st6" d="M130.66,22.76c1.62,0,3.42,0.01,5.39,0.04c1.97,0.03,4.06,0.06,6.26,0.09c2.2,0.03,4.47,0.04,6.79,0.04
					c2.32,0,4.64,0,6.96,0c2.32,0,4.6-0.01,6.83-0.04c2.23-0.03,4.42-0.07,6.57-0.13c-0.06,1.22-0.12,2.58-0.17,4.09
					c-0.06,1.51-0.1,2.96-0.13,4.35c-0.03,1.39-0.04,2.81-0.04,4.26c-1.16-0.06-2.45-0.12-3.87-0.17c-1.42-0.06-2.97-0.09-4.65-0.09
					c-1.68,0-3.42-0.03-5.22-0.09c-1.8-0.06-3.6-0.09-5.39-0.09c-1.8,0-3.6-0.01-5.39-0.04c-1.8-0.03-3.52-0.04-5.18-0.04
					c-1.65,0-3.21-0.01-4.65-0.04c-1.45-0.03-2.78-0.04-4-0.04c0-0.93,0-1.9,0-2.91s0-2.09,0-3.22s-0.02-2.2-0.04-3.22
					C130.67,24.48,130.66,23.57,130.66,22.76z M137.19,11.62c1.16,0.06,2.36,0.1,3.61,0.13c1.25,0.03,2.48,0.04,3.7,0.04
					c0.75,0,1.54,0,2.35,0c0.81,0,1.65-0.01,2.52-0.04c0.87-0.03,1.65-0.07,2.35-0.13c-0.06,3.13-0.13,6.38-0.22,9.74
					c-0.09,3.37-0.16,6.87-0.22,10.53c-0.06,3.65-0.09,7.5-0.09,11.53c0,4.03,0,8.28,0,12.75c0,1.57,0.26,2.87,0.78,3.92
					c0.52,1.04,1.36,1.84,2.52,2.39c1.16,0.55,2.73,0.83,4.7,0.83c1.8,0,3.54-0.19,5.22-0.57c1.68-0.38,3.13-0.83,4.35-1.35
					c0.12,0.75,0.23,1.61,0.35,2.57c0.12,0.96,0.25,1.89,0.39,2.78c0.14,0.9,0.29,1.8,0.44,2.7c0.14,0.9,0.29,1.74,0.43,2.52
					c0.14,0.78,0.27,1.49,0.39,2.13c-1.62,0.41-3.1,0.77-4.44,1.09c-1.33,0.32-2.73,0.55-4.18,0.7c-1.45,0.14-3.07,0.22-4.87,0.22
					c-3.13,0-5.82-0.3-8.05-0.91c-2.23-0.61-4.15-1.44-5.74-2.48c-1.6-1.04-2.87-2.33-3.83-3.87c-0.96-1.54-1.67-3.23-2.13-5.09
					c-0.46-1.86-0.7-3.86-0.7-6c0-1.97,0-4.2,0-6.7c0-2.49,0-5.09,0-7.79s0.03-5.44,0.09-8.22c0.06-2.78,0.1-5.6,0.13-8.44
					s0.06-5.51,0.09-8C137.17,16.09,137.19,13.77,137.19,11.62z"/>
				<path class="st6" d="M231.41,48.25c0,4.35-0.65,8.26-1.96,11.74c-1.3,3.48-3.12,6.45-5.44,8.92c-2.32,2.47-5.18,4.35-8.57,5.66
					c-3.39,1.3-7.21,1.96-11.44,1.96c-4.29,0-8.09-0.65-11.4-1.96c-3.31-1.31-6.16-3.19-8.57-5.66c-2.41-2.46-4.19-5.44-5.35-8.92
					c-1.16-3.48-1.74-7.39-1.74-11.74c0-4.35,0.64-8.18,1.91-11.48c1.28-3.31,3.1-6.09,5.48-8.35c2.38-2.26,5.22-3.96,8.53-5.09
					c3.31-1.13,7.02-1.7,11.14-1.7c4,0,7.7,0.57,11.09,1.7c3.39,1.13,6.29,2.83,8.7,5.09c2.41,2.26,4.28,5.05,5.61,8.35
					C230.74,40.07,231.41,43.9,231.41,48.25z M217.14,48.68c0-2.61-0.3-4.83-0.91-6.66c-0.61-1.83-1.48-3.35-2.61-4.57
					c-1.13-1.22-2.52-2.07-4.18-2.57c-1.65-0.49-3.47-0.74-5.44-0.74c-1.97,0-3.76,0.25-5.35,0.74c-1.6,0.49-2.99,1.33-4.18,2.52
					c-1.19,1.19-2.09,2.71-2.7,4.57c-0.61,1.86-0.91,4.09-0.91,6.7c0,2.55,0.3,4.84,0.91,6.87c0.61,2.03,1.49,3.64,2.65,4.83
					c1.16,1.19,2.55,2.1,4.18,2.74c1.62,0.64,3.42,0.96,5.39,0.96c2.03,0,3.87-0.32,5.52-0.96c1.65-0.64,3.04-1.59,4.18-2.87
					c1.13-1.28,1.99-2.88,2.57-4.83C216.85,53.48,217.14,51.24,217.14,48.68z"/>
				<path class="st6" d="M266.99,75.39c0.17-4.7,0.27-9.6,0.3-14.7c0.03-5.1,0.04-11.11,0.04-18.01c0-7.13,0-13.28,0-18.44
					c0-5.16-0.06-9.86-0.17-14.09H287c0.7,1.57,1.52,3.57,2.48,6c0.96,2.44,2.04,5.1,3.26,8c1.22,2.9,2.51,6,3.87,9.31
					c1.36,3.31,2.74,6.67,4.13,10.09c0.58,1.28,1.19,2.75,1.83,4.44c0.64,1.68,1.23,3.38,1.78,5.09c0.55,1.71,1.06,3.38,1.52,5
					l-2.52-3.91h3.04l-2.78,3.91c0.58-1.62,1.17-3.29,1.78-5c0.61-1.71,1.22-3.38,1.83-5c0.61-1.62,1.17-3.13,1.7-4.52
					c1.39-3.31,2.75-6.6,4.09-9.88c1.33-3.28,2.61-6.39,3.83-9.35s2.33-5.67,3.35-8.13c1.01-2.46,1.87-4.48,2.57-6.05h18.1
					c-0.06,4.23-0.12,8.93-0.17,14.09c-0.06,5.16-0.09,11.31-0.09,18.44c0,6.9,0.03,12.91,0.09,18.01c0.06,5.1,0.17,10,0.35,14.7
					H325.8c0.12-3.07,0.19-6.03,0.22-8.87c0.03-2.84,0.07-5.66,0.13-8.44c0.06-2.78,0.1-5.65,0.13-8.61
					c0.03-2.96,0.04-6.09,0.04-9.4c0-2.38,0.06-4.84,0.17-7.39c0.12-2.55,0.22-5.09,0.3-7.61c0.09-2.52,0.16-4.92,0.22-7.18l2,7.57
					l-5.57-0.87l4.87-6.53c-0.46,1.8-0.96,3.62-1.48,5.48c-0.52,1.86-1.06,3.74-1.61,5.65c-0.55,1.91-1.13,3.71-1.74,5.39
					c-0.61,1.68-1.23,3.25-1.87,4.7l-14.88,36.11h-6.7L285,38.42c-0.64-1.51-1.29-3.15-1.96-4.92c-0.67-1.77-1.28-3.55-1.83-5.35
					c-0.55-1.8-1.09-3.57-1.61-5.31c-0.52-1.74-0.99-3.39-1.39-4.96l4.26,6.35l-5.31,0.7l2.35-7.22c0,1.86,0.03,3.74,0.09,5.65
					c0.06,1.91,0.12,3.79,0.17,5.61c0.06,1.83,0.12,3.67,0.17,5.52c0.06,1.86,0.09,3.74,0.09,5.65c0,3.25,0.01,6.35,0.04,9.31
					s0.09,5.82,0.17,8.57c0.09,2.76,0.16,5.55,0.22,8.4c0.06,2.84,0.09,5.83,0.09,8.96H266.99z"/>
				<path class="st6" d="M403.49,75.39h-12.18c-0.64,0-1.16-0.04-1.57-0.13c-0.41-0.09-0.71-0.25-0.91-0.48
					c-0.2-0.23-0.38-0.58-0.52-1.04c-0.15-0.46-0.22-1.04-0.22-1.74c0-0.99,0.03-2.01,0.09-3.09c0.06-1.07,0.12-2.15,0.17-3.22
					c0.06-1.07,0.12-2.1,0.17-3.09l0.96,3.92l-2.35-0.26l1.65-4c-0.41,3.07-1.36,5.67-2.87,7.79c-1.51,2.12-3.57,3.67-6.18,4.65
					c-2.61,0.99-5.77,1.48-9.48,1.48c-2.78,0-5.25-0.26-7.4-0.78c-2.15-0.52-3.96-1.35-5.44-2.48c-1.48-1.13-2.6-2.61-3.35-4.44
					c-0.75-1.83-1.13-4.02-1.13-6.57c0-3.65,0.81-6.62,2.44-8.92c1.62-2.29,4.1-3.97,7.44-5.05c3.33-1.07,7.5-1.61,12.48-1.61
					c2.78,0,5.41,0.07,7.87,0.22c2.46,0.15,4.45,0.45,5.96,0.91v6.61c-1.91-0.35-3.83-0.58-5.74-0.7s-3.94-0.17-6.09-0.17
					c-1.8,0-3.31,0.15-4.52,0.43c-1.22,0.29-2.26,0.7-3.13,1.22c-0.87,0.52-1.51,1.19-1.91,2c-0.41,0.81-0.61,1.74-0.61,2.78
					c0,1.1,0.14,2.04,0.43,2.83c0.29,0.78,0.77,1.41,1.44,1.87c0.67,0.46,1.55,0.83,2.65,1.09c1.1,0.26,2.44,0.39,4,0.39
					c1.91,0,3.62-0.26,5.13-0.78c1.51-0.52,2.8-1.29,3.87-2.31c1.07-1.01,1.87-2.23,2.39-3.65c0.52-1.42,0.78-3.03,0.78-4.83
					c0-1.16,0.01-2.44,0.04-3.83c0.03-1.39,0.06-2.77,0.09-4.13c0.03-1.36,0.04-2.65,0.04-3.87c0-1.28-0.16-2.46-0.48-3.57
					c-0.32-1.1-0.86-2.03-1.61-2.78c-0.75-0.75-1.75-1.3-3-1.65c-1.25-0.35-2.74-0.52-4.48-0.52c-1.68,0-3.16,0.16-4.44,0.48
					c-1.28,0.32-2.34,0.87-3.18,1.65c-0.84,0.78-1.45,1.77-1.83,2.96c-0.38,1.19-0.54,2.57-0.48,4.13
					c-0.81-0.12-1.77-0.17-2.87-0.17c-1.1,0-2.21,0-3.31,0c-0.93,0-1.86,0.01-2.78,0.04c-0.93,0.03-1.81,0.06-2.65,0.09
					c-0.84,0.03-1.61,0.1-2.31,0.22c-0.23-2.38-0.09-4.66,0.43-6.83c0.52-2.17,1.38-4.16,2.57-5.96c1.19-1.8,2.74-3.35,4.65-4.66
					c1.91-1.3,4.2-2.29,6.87-2.96c2.67-0.67,5.71-1,9.13-1c4.35,0,8.09,0.48,11.22,1.44c3.13,0.96,5.66,2.32,7.57,4.09
					c1.91,1.77,3.31,3.9,4.18,6.39c0.87,2.49,1.31,5.25,1.31,8.26c0,2.21-0.03,4.25-0.09,6.13c-0.06,1.89-0.12,3.74-0.17,5.57
					c-0.06,1.83-0.09,3.81-0.09,5.96c0,1.57,0.04,3.13,0.13,4.7c0.09,1.57,0.17,3.06,0.26,4.48c0.09,1.42,0.22,2.7,0.39,3.83
					S403.32,74.75,403.49,75.39z"/>
				<path class="st6" d="M431.42,75.39h-15.49c0.12-3.77,0.17-7.73,0.17-11.88c0-4.15,0-9.03,0-14.66c0-5.51,0-10.31,0-14.4
					s-0.06-7.99-0.17-11.7h12.61c-0.06,1.68-0.12,3.5-0.17,5.44c-0.06,1.94-0.12,4.02-0.17,6.22c-0.06,2.2-0.09,4.64-0.09,7.31
					l-0.78-7.74l2.09,0.26l-1.83,7.31c0.29-3.54,0.9-6.54,1.83-9c0.93-2.46,2.1-4.48,3.52-6.05c1.42-1.57,3.1-2.68,5.05-3.35
					c1.94-0.67,4.16-1,6.66-1c1.33,0,2.64,0.09,3.92,0.26c1.27,0.17,2.49,0.44,3.65,0.78c-0.17,0.75-0.32,1.73-0.43,2.92
					c-0.12,1.19-0.25,2.44-0.39,3.74c-0.15,1.31-0.25,2.55-0.3,3.74c-0.06,1.19-0.12,2.25-0.17,3.18c-1.1-0.41-2.31-0.7-3.61-0.87
					c-1.31-0.17-2.68-0.26-4.13-0.26c-2.15,0-3.99,0.28-5.52,0.83c-1.54,0.55-2.8,1.42-3.78,2.61c-0.99,1.19-1.73,2.8-2.22,4.83
					c-0.49,2.03-0.74,4.55-0.74,7.57c0,2.03,0,4.13,0,6.31c0,2.17,0.04,4.34,0.13,6.48c0.09,2.15,0.16,4.16,0.22,6.05
					C431.3,72.19,431.36,73.88,431.42,75.39z"/>
				<path class="st6" d="M474.74,75.39h-14.79c0.12-2.55,0.17-5.13,0.17-7.74c0-2.61,0-5.31,0-8.09s0-5.64,0-8.57c0-2.93,0-5.93,0-9
					c0-3.19,0-6.23,0-9.13c0-2.9,0.01-5.74,0.04-8.53c0.03-2.78,0.01-5.52-0.04-8.22c-0.06-2.7-0.12-5.38-0.17-8.05h14.96
					c-0.06,2.67-0.12,5.29-0.17,7.87c-0.06,2.58-0.1,5.28-0.13,8.09c-0.03,2.81-0.04,5.77-0.04,8.87s0,6.51,0,10.22
					c0,3.31,0,6.38,0,9.22s0,5.51,0,8c0,2.49,0.01,4.99,0.04,7.48C474.64,70.32,474.69,72.84,474.74,75.39z M512.33,75.39h-15.49
					c-1.04,0-1.86-0.13-2.44-0.39c-0.58-0.26-1.16-0.71-1.74-1.35c-1.16-1.33-2.42-2.86-3.79-4.57c-1.36-1.71-2.75-3.45-4.18-5.22
					c-1.42-1.77-2.87-3.44-4.35-5c-1.48-1.57-2.9-3-4.26-4.31c-1.36-1.3-2.6-2.39-3.7-3.26l5.39,2.26h-5.13v-6.26h3.92v3.13
					l-4.79,0.17c0.87-0.87,1.74-1.8,2.61-2.78c0.87-0.99,1.77-1.96,2.7-2.91c0.93-0.96,1.83-1.93,2.7-2.92
					c0.87-0.99,1.71-1.94,2.52-2.87c2.9-3.42,5.36-6.51,7.4-9.27c2.03-2.75,3.71-5.12,5.05-7.09h16.88
					c-1.33,1.51-2.81,3.25-4.44,5.22c-1.62,1.97-3.31,4.08-5.05,6.31c-1.74,2.23-3.55,4.44-5.44,6.61c-1.88,2.17-3.64,4.18-5.26,6
					s-3.07,3.32-4.35,4.48l0.61-3.31v3.48l-1.04-4.35c1.27,0.99,2.58,2.21,3.92,3.65c1.33,1.45,2.74,3.02,4.22,4.7
					c1.48,1.68,2.96,3.39,4.44,5.13c1.48,1.74,2.96,3.5,4.44,5.26c1.48,1.77,2.94,3.45,4.39,5.05
					C509.51,72.59,510.94,74.06,512.33,75.39z"/>
				<path class="st6" d="M542.86,76.52c-3.36,0-6.41-0.36-9.14-1.09c-2.73-0.72-5.18-1.81-7.35-3.26c-2.18-1.45-4-3.26-5.48-5.44
					c-1.48-2.17-2.6-4.71-3.35-7.61c-0.75-2.9-1.13-6.23-1.13-10.01c0-4.81,0.61-8.95,1.83-12.4c1.22-3.45,2.97-6.28,5.26-8.48
					c2.29-2.2,5.1-3.86,8.44-4.96c3.33-1.1,7.03-1.65,11.09-1.65c3.36,0,6.35,0.33,8.96,1c2.61,0.67,4.83,1.64,6.66,2.92
					c1.83,1.28,3.29,2.81,4.39,4.61c1.1,1.8,1.91,3.84,2.44,6.13c0.52,2.29,0.78,4.77,0.78,7.44c0,1.33-0.01,2.57-0.04,3.7
					c-0.03,1.13-0.06,2.15-0.09,3.04c-0.03,0.9-0.07,1.75-0.13,2.57c-1.22,0-2.55-0.03-4-0.09c-1.45-0.06-3.06-0.1-4.83-0.13
					c-1.77-0.03-3.6-0.04-5.48-0.04c-1.89,0-3.81,0-5.79,0c-2.32,0-4.58,0-6.79,0c-2.21,0-4.23,0.01-6.09,0.04
					c-1.86,0.03-3.48,0.04-4.87,0.04l0.35-7.74c1.51,0.06,3.04,0.1,4.61,0.13c1.57,0.03,3.15,0.06,4.74,0.09
					c1.59,0.03,3.2,0.06,4.83,0.09c1.62,0.03,3.22,0.01,4.78-0.04c1.57-0.06,3-0.1,4.31-0.13c1.31-0.03,2.57-0.04,3.79-0.04
					l-2.96,2.52c0.12-0.41,0.23-1.01,0.35-1.83c0.12-0.81,0.17-1.88,0.17-3.22c0-1.8-0.2-3.35-0.61-4.65
					c-0.41-1.31-1.03-2.39-1.87-3.26c-0.84-0.87-1.94-1.51-3.31-1.91c-1.36-0.41-3-0.61-4.92-0.61c-2.09,0-3.92,0.26-5.48,0.78
					c-1.57,0.52-2.87,1.45-3.92,2.78c-1.04,1.33-1.83,3.18-2.35,5.52c-0.52,2.35-0.78,5.24-0.78,8.66c0,3.02,0.26,5.52,0.78,7.53
					c0.52,2,1.32,3.63,2.39,4.87c1.07,1.25,2.42,2.15,4.05,2.7c1.62,0.55,3.57,0.83,5.83,0.83c1.62,0,2.99-0.12,4.09-0.35
					c1.1-0.23,2.07-0.55,2.91-0.96c0.84-0.41,1.49-0.91,1.96-1.52c0.46-0.61,0.81-1.3,1.04-2.09c0.23-0.78,0.35-1.61,0.35-2.48
					c0.64,0.06,1.29,0.09,1.96,0.09c0.67,0,1.38,0.01,2.13,0.04s1.59,0.04,2.52,0.04c1.28,0,2.45-0.03,3.52-0.09
					c1.07-0.06,2.01-0.09,2.83-0.09c0.06,1.86-0.04,3.57-0.3,5.13c-0.26,1.57-0.74,3.02-1.44,4.35c-0.7,1.33-1.61,2.54-2.74,3.61
					s-2.58,1.97-4.35,2.7c-1.77,0.73-3.86,1.28-6.26,1.65C548.76,76.33,546,76.52,542.86,76.52z"/>
				<path class="st6" d="M573.49,22.76c1.62,0,3.42,0.01,5.39,0.04c1.97,0.03,4.06,0.06,6.26,0.09c2.2,0.03,4.47,0.04,6.79,0.04
					c2.32,0,4.64,0,6.96,0c2.32,0,4.6-0.01,6.83-0.04c2.23-0.03,4.42-0.07,6.57-0.13c-0.06,1.22-0.12,2.58-0.17,4.09
					c-0.06,1.51-0.1,2.96-0.13,4.35c-0.03,1.39-0.04,2.81-0.04,4.26c-1.16-0.06-2.45-0.12-3.87-0.17c-1.42-0.06-2.97-0.09-4.66-0.09
					c-1.68,0-3.42-0.03-5.22-0.09c-1.8-0.06-3.6-0.09-5.39-0.09c-1.8,0-3.6-0.01-5.39-0.04s-3.52-0.04-5.18-0.04
					c-1.65,0-3.21-0.01-4.66-0.04c-1.45-0.03-2.78-0.04-4-0.04c0-0.93,0-1.9,0-2.91s0-2.09,0-3.22s-0.01-2.2-0.04-3.22
					C573.5,24.48,573.49,23.57,573.49,22.76z M580.01,11.62c1.16,0.06,2.36,0.1,3.61,0.13c1.25,0.03,2.48,0.04,3.7,0.04
					c0.75,0,1.54,0,2.35,0c0.81,0,1.65-0.01,2.52-0.04c0.87-0.03,1.65-0.07,2.35-0.13c-0.06,3.13-0.13,6.38-0.22,9.74
					c-0.09,3.37-0.16,6.87-0.22,10.53c-0.06,3.65-0.09,7.5-0.09,11.53c0,4.03,0,8.28,0,12.75c0,1.57,0.26,2.87,0.78,3.92
					c0.52,1.04,1.36,1.84,2.52,2.39c1.16,0.55,2.73,0.83,4.7,0.83c1.8,0,3.54-0.19,5.22-0.57c1.68-0.38,3.13-0.83,4.35-1.35
					c0.12,0.75,0.23,1.61,0.35,2.57c0.12,0.96,0.25,1.89,0.39,2.78c0.14,0.9,0.29,1.8,0.43,2.7c0.14,0.9,0.29,1.74,0.44,2.52
					c0.14,0.78,0.27,1.49,0.39,2.13c-1.62,0.41-3.1,0.77-4.44,1.09c-1.33,0.32-2.73,0.55-4.18,0.7c-1.45,0.14-3.08,0.22-4.87,0.22
					c-3.13,0-5.82-0.3-8.05-0.91c-2.23-0.61-4.15-1.44-5.74-2.48c-1.6-1.04-2.87-2.33-3.83-3.87c-0.96-1.54-1.67-3.23-2.13-5.09
					c-0.46-1.86-0.7-3.86-0.7-6c0-1.97,0-4.2,0-6.7c0-2.49,0-5.09,0-7.79s0.03-5.44,0.09-8.22c0.06-2.78,0.1-5.6,0.13-8.44
					c0.03-2.84,0.06-5.51,0.09-8C580,16.09,580.01,13.77,580.01,11.62z"/>
			</g>
		</g>
	</g>
</g>
<g id="toto1">
</g>
<g id="Calque_3">
</g>
</svg>
